<?xml version="1.0" encoding="UTF-8" standalone="no"?>
<svg
   width="800px"
   height="800px"
   viewBox="0 0 24 24"
   version="1.1"
   id="svg9"
   sodipodi:docname="checkbox-checked-svgrepo-com2.svg"
   inkscape:version="1.1.2 (0a00cf5339, 2022-02-04)"
   xmlns:inkscape="http://www.inkscape.org/namespaces/inkscape"
   xmlns:sodipodi="http://sodipodi.sourceforge.net/DTD/sodipodi-0.dtd"
   xmlns="http://www.w3.org/2000/svg"
   xmlns:svg="http://www.w3.org/2000/svg"
   xmlns:rdf="http://www.w3.org/1999/02/22-rdf-syntax-ns#"
   xmlns:cc="http://creativecommons.org/ns#"
   xmlns:dc="http://purl.org/dc/elements/1.1/">
  <defs
     id="defs13" />
  <sodipodi:namedview
     id="namedview11"
     pagecolor="#ffffff"
     bordercolor="#666666"
     borderopacity="1.0"
     inkscape:pageshadow="2"
     inkscape:pageopacity="0.0"
     inkscape:pagecheckerboard="0"
     showgrid="false"
     inkscape:zoom="1.09125"
     inkscape:cx="400"
     inkscape:cy="400.45819"
     inkscape:window-width="2560"
     inkscape:window-height="1307"
     inkscape:window-x="1920"
     inkscape:window-y="32"
     inkscape:window-maximized="1"
     inkscape:current-layer="ðŸ”-Product-Icons" />
  <!-- Uploaded to: SVG Repo, www.svgrepo.com, Generator: SVG Repo Mixer Tools -->
  <title
     id="title2">ic_fluent_checkbox_checked_24_regular</title>
  <desc
     id="desc4">Created with Sketch.</desc>
  <g
     id="ðŸ”-Product-Icons"
     stroke="none"
     stroke-width="1"
     fill="none"
     fill-rule="evenodd"
     transform="matrix(1.3333333,0,0,1.3333333,-4,-4)">
    <path
       d="M 18.25,3 C 19.768783,3 21,4.2312169 21,5.75 v 12.5 C 21,19.768783 19.768783,21 18.25,21 H 5.75 C 4.2312169,21 3,19.768783 3,18.25 V 5.75 C 3,4.2312169 4.2312169,3 5.75,3 Z m 0,1.5 H 5.75 C 5.0596441,4.5 4.5,5.0596441 4.5,5.75 v 12.5 c 0,0.690356 0.5596441,1.25 1.25,1.25 h 12.5 c 0.690356,0 1.25,-0.559644 1.25,-1.25 V 5.75 C 19.5,5.0596441 18.940356,4.5 18.25,4.5 Z"
       id="ðŸŽ¨Color"
       style="fill:#212121;fill-rule:nonzero"
       sodipodi:nodetypes="ssssssssssssssssss" />
  </g>
  <metadata
     id="metadata950">
    <rdf:RDF>
      <cc:Work
         rdf:about="">
        <dc:title>ic_fluent_checkbox_checked_24_regular</dc:title>
      </cc:Work>
    </rdf:RDF>
  </metadata>
</svg>
